<?xml version="1.0" encoding="UTF-8" standalone="no"?>
<!-- Created with Inkscape (http://www.inkscape.org/) -->

<svg
   width="512"
   height="512"
   viewBox="0 0 512 512"
   version="1.1"
   id="svg1"
   inkscape:export-filename="bitmap.png"
   inkscape:export-xdpi="96"
   inkscape:export-ydpi="96"
   inkscape:version="1.4.2 (f4327f4, 2025-05-13)"
   sodipodi:docname="icon.svg"
   xmlns:inkscape="http://www.inkscape.org/namespaces/inkscape"
   xmlns:sodipodi="http://sodipodi.sourceforge.net/DTD/sodipodi-0.dtd"
   xmlns:xlink="http://www.w3.org/1999/xlink"
   xmlns="http://www.w3.org/2000/svg"
   xmlns:svg="http://www.w3.org/2000/svg">
  <sodipodi:namedview
     id="namedview1"
     pagecolor="#ffffff"
     bordercolor="#000000"
     borderopacity="0.25"
     inkscape:showpageshadow="2"
     inkscape:pageopacity="0.0"
     inkscape:pagecheckerboard="0"
     inkscape:deskcolor="#d1d1d1"
     inkscape:document-units="px"
     inkscape:zoom="1.4142136"
     inkscape:cx="160.51324"
     inkscape:cy="271.17545"
     inkscape:window-width="1920"
     inkscape:window-height="991"
     inkscape:window-x="-9"
     inkscape:window-y="144"
     inkscape:window-maximized="1"
     inkscape:current-layer="g49-7-4" />
  <defs
     id="defs1">
    <linearGradient
       inkscape:collect="always"
       xlink:href="#linearGradient212"
       id="linearGradient213"
       x1="361.08926"
       y1="397.86145"
       x2="438.51746"
       y2="397.86145"
       gradientUnits="userSpaceOnUse"
       gradientTransform="matrix(6.6125788,0,0,6.6125788,-2387.7314,-2374.8901)" />
    <linearGradient
       id="linearGradient212"
       inkscape:collect="always">
      <stop
         style="stop-color:#c9ada7;stop-opacity:1;"
         offset="0"
         id="stop212" />
      <stop
         style="stop-color:#f2e9e4;stop-opacity:1;"
         offset="1"
         id="stop213" />
    </linearGradient>
    <filter
       style="color-interpolation-filters:sRGB;"
       inkscape:label="Drop Shadow"
       id="filter24"
       x="-0.034119169"
       y="-0.065459689"
       width="1.0895628"
       height="1.1718317">
      <feFlood
         result="flood"
         in="SourceGraphic"
         flood-opacity="0.749020"
         flood-color="rgb(154,140,152)"
         id="feFlood23" />
      <feGaussianBlur
         result="blur"
         in="SourceGraphic"
         stdDeviation="1.000000"
         id="feGaussianBlur23" />
      <feOffset
         result="offset"
         in="blur"
         dx="1.500000"
         dy="1.500000"
         id="feOffset23" />
      <feComposite
         result="comp1"
         operator="in"
         in="flood"
         in2="offset"
         id="feComposite23" />
      <feComposite
         result="comp2"
         operator="over"
         in="SourceGraphic"
         in2="comp1"
         id="feComposite24" />
    </filter>
  </defs>
  <g
     inkscape:label="Camada 1"
     inkscape:groupmode="layer"
     id="layer1">
    <rect
       style="fill:url(#linearGradient213);fill-opacity:1;stroke-width:6.61259"
       id="rect10-8-1-9"
       width="512"
       height="512"
       x="0"
       y="0"
       ry="0" />
    <g
       id="g49-7-4"
       transform="matrix(4.3492857,-4.3492857,4.3492857,4.3492857,-2239.1269,1345.4275)"
       style="fill:#f2e9e4;fill-opacity:1;filter:url(#filter24)">
      <g
         id="g24"
         style="fill:#22223b;fill-opacity:1">
        <text
           xml:space="preserve"
           style="font-weight:bold;font-size:19.949px;font-family:'Tw Cen MT Condensed';-inkscape-font-specification:'Tw Cen MT Condensed,  Bold';text-align:start;writing-mode:lr-tb;direction:ltr;text-anchor:start;fill:#22223b;fill-opacity:1;stroke-width:1.66241"
           x="404.89642"
           y="173.02222"
           id="text1-8-4-6-6-3-7-7"><tspan
             sodipodi:role="line"
             id="tspan1-9-2-3-0-5-8-8"
             x="404.89642"
             y="173.02222"
             style="font-style:normal;font-variant:normal;font-weight:bold;font-stretch:normal;font-family:'Times New Roman';-inkscape-font-specification:'Times New Roman,  Bold';fill:#22223b;fill-opacity:1;stroke-width:1.66241">CCB</tspan></text>
        <path
           style="fill:#22223b;fill-opacity:1"
           d="m 437.92948,157.2152 c -0.89106,0.0345 -1.78255,0.0385 -2.65707,0.038 l -36.51175,-0.0221 c 0.18317,-0.98177 5.71571,-1.12696 27.23098,-1.12696 h 10.6729 c 0.57994,0 1.72715,0.073 2.24343,-0.5048 0.54755,-0.61278 0.69055,-1.52491 1.08283,-1.42833 0.1797,2.15438 -0.81007,2.99573 -2.06132,3.04421 z"
           id="path6-5-9-8-5-9-3-3"
           sodipodi:nodetypes="sscssscss" />
        <path
           style="fill:#22223b;fill-opacity:1"
           d="m 448.20547,162.96033 c 1.27344,-3.20755 0.81761,-5.78633 -0.64081,-7.71188 -0.24445,-0.32275 0.2654,-0.73218 0.50823,-0.46404 2.90495,3.20768 0.96353,6.30457 0.13258,8.17592 z"
           id="path41-7-9-8-5"
           sodipodi:nodetypes="cssc" />
        <path
           style="fill:#22223b;fill-opacity:1"
           d="m 438.37227,154.23198 c 3.63865,1.5427 7.27731,2.36915 10.91596,1.21534 0.0205,1.02587 -2.72516,1.5846 -5.41166,1.2638 -2.84603,-0.33985 -5.63924,-1.61546 -5.5043,-2.47914 z"
           id="path42-5-8-3-12"
           sodipodi:nodetypes="ccsc" />
        <path
           style="fill:#22223b;fill-opacity:1;stroke-width:0.59326"
           d="m 390.45515,179.26313 c -1.15989,-0.33228 -4.26324,-1.86937 -6.61055,-5.93764 -2.03835,-3.53282 -2.74333,-9.85852 -2.8167,-14.02831 -0.0651,-3.70215 0.79062,-7.89011 3.15459,-11.12262 1.57466,-2.15319 3.48083,-3.17432 5.703,-3.70399 3.99426,-0.95206 7.73409,0.59304 11.43605,2.38383 2.06407,0.99847 6.17861,3.56659 7.82267,3.65224 4.23885,0.22084 10.17257,-2.62022 13.13342,-0.65963 3.61587,2.39433 3.2295,6.02448 3.83142,7.06089 0.37412,-2.31417 -0.23656,-6.59156 -3.6467,-8.31226 -4.10027,-2.06892 -9.27815,0.73202 -12.80847,0.37947 -2.03274,-0.20299 -4.94141,-2.1182 -7.70779,-3.60425 -4.0637,-2.18297 -8.80758,-3.32724 -12.7015,-2.50393 -3.16315,0.66881 -4.82711,2.13872 -6.43597,4.22527 -2.53236,3.28432 -3.53638,8.03613 -3.53639,11.99557 -3e-5,5.94572 0.80466,11.41852 2.76885,14.70251 2.76754,4.62713 7.14342,5.46991 8.41407,5.47285 z"
           id="path46-6-7-0"
           sodipodi:nodetypes="cssssssscsssssssc" />
        <path
           style="fill:#22223b;fill-opacity:1;stroke-width:3.85515"
           d="m 399.43623,156.56421 -0.17734,-1.95417 -2.10904,-0.0386 c 0.0116,1.41892 -0.66043,3.55568 -0.71162,6.32442 -0.10062,5.44421 0.46462,4.43809 0.42649,6.27927 -0.0193,1.01117 -0.096,1.49985 -0.2926,1.46951 0.0513,-1.41569 -0.95604,-4.09063 -0.89374,-7.80977 0.0347,-2.12678 0.74493,-3.99695 0.7686,-6.79734 l 3.49269,-0.19044 c -0.0193,1.86856 -0.1677,2.70601 -0.50152,2.71592 z"
           id="path48-6-1-1"
           sodipodi:nodetypes="cccsscscccc" />
        <ellipse
           style="fill:#22223b;fill-opacity:1;stroke-width:0.890098"
           id="path49-4-0-6"
           cx="431.26328"
           cy="154.38614"
           rx="0.64441472"
           ry="0.72437632"
           transform="matrix(1,0,0.06887328,0.99762542,0,0)" />
        <ellipse
           style="fill:#22223b;fill-opacity:1;stroke-width:0.839129"
           id="path49-6-3-7-4"
           cx="426.57245"
           cy="155.29367"
           rx="0.5704174"
           ry="0.72730649"
           transform="matrix(1,0,0.11290071,0.99360627,0,0)" />
        <ellipse
           style="fill:#22223b;fill-opacity:1;stroke-width:0.907639"
           id="path49-6-8-9-3-0"
           cx="417.50403"
           cy="156.94344"
           rx="0.64298725"
           ry="0.75487965"
           transform="matrix(1,0,0.18260384,0.98318657,0,0)" />
      </g>
    </g>
  </g>
</svg>
